<svg id="visual" viewBox="0 0 540 960" width="540" height="960" xmlns="http://www.w3.org/2000/svg" xmlns:xlink="http://www.w3.org/1999/xlink" version="1.1"><path d="M0 161L11.3 156.3C22.7 151.7 45.3 142.3 67.8 139.3C90.3 136.3 112.7 139.7 135.2 142.8C157.7 146 180.3 149 202.8 148.3C225.3 147.7 247.7 143.3 270.2 140.3C292.7 137.3 315.3 135.7 337.8 137.2C360.3 138.7 382.7 143.3 405.2 143C427.7 142.7 450.3 137.3 472.8 134.8C495.3 132.3 517.7 132.7 528.8 132.8L540 133L540 0L528.8 0C517.7 0 495.3 0 472.8 0C450.3 0 427.7 0 405.2 0C382.7 0 360.3 0 337.8 0C315.3 0 292.7 0 270.2 0C247.7 0 225.3 0 202.8 0C180.3 0 157.7 0 135.2 0C112.7 0 90.3 0 67.8 0C45.3 0 22.7 0 11.3 0L0 0Z" fill="#32327d"></path><path d="M0 122L11.3 118.8C22.7 115.7 45.3 109.3 67.8 110.8C90.3 112.3 112.7 121.7 135.2 123.2C157.7 124.7 180.3 118.3 202.8 115C225.3 111.7 247.7 111.3 270.2 113C292.7 114.7 315.3 118.3 337.8 119.7C360.3 121 382.7 120 405.2 119.3C427.7 118.7 450.3 118.3 472.8 115.7C495.3 113 517.7 108 528.8 105.5L540 103L540 0L528.8 0C517.7 0 495.3 0 472.8 0C450.3 0 427.7 0 405.2 0C382.7 0 360.3 0 337.8 0C315.3 0 292.7 0 270.2 0C247.7 0 225.3 0 202.8 0C180.3 0 157.7 0 135.2 0C112.7 0 90.3 0 67.8 0C45.3 0 22.7 0 11.3 0L0 0Z" fill="#2d2d72"></path><path d="M0 100L11.3 98.3C22.7 96.7 45.3 93.3 67.8 95C90.3 96.7 112.7 103.3 135.2 102.5C157.7 101.7 180.3 93.3 202.8 92.5C225.3 91.7 247.7 98.3 270.2 101.2C292.7 104 315.3 103 337.8 101.3C360.3 99.7 382.7 97.3 405.2 97.2C427.7 97 450.3 99 472.8 99.7C495.3 100.3 517.7 99.7 528.8 99.3L540 99L540 0L528.8 0C517.7 0 495.3 0 472.8 0C450.3 0 427.7 0 405.2 0C382.7 0 360.3 0 337.8 0C315.3 0 292.7 0 270.2 0C247.7 0 225.3 0 202.8 0C180.3 0 157.7 0 135.2 0C112.7 0 90.3 0 67.8 0C45.3 0 22.7 0 11.3 0L0 0Z" fill="#282868"></path><path d="M0 59L11.3 61.2C22.7 63.3 45.3 67.7 67.8 69.3C90.3 71 112.7 70 135.2 70.2C157.7 70.3 180.3 71.7 202.8 72C225.3 72.3 247.7 71.7 270.2 69.5C292.7 67.3 315.3 63.7 337.8 64.3C360.3 65 382.7 70 405.2 72.8C427.7 75.7 450.3 76.3 472.8 76.8C495.3 77.3 517.7 77.7 528.8 77.8L540 78L540 0L528.8 0C517.7 0 495.3 0 472.8 0C450.3 0 427.7 0 405.2 0C382.7 0 360.3 0 337.8 0C315.3 0 292.7 0 270.2 0C247.7 0 225.3 0 202.8 0C180.3 0 157.7 0 135.2 0C112.7 0 90.3 0 67.8 0C45.3 0 22.7 0 11.3 0L0 0Z" fill="#23235e"></path><path d="M0 52L11.3 52.5C22.7 53 45.3 54 67.8 52.8C90.3 51.7 112.7 48.3 135.2 48C157.7 47.7 180.3 50.3 202.8 52.5C225.3 54.7 247.7 56.3 270.2 54.2C292.7 52 315.3 46 337.8 44.2C360.3 42.3 382.7 44.7 405.2 44.7C427.7 44.7 450.3 42.3 472.8 43.8C495.3 45.3 517.7 50.7 528.8 53.3L540 56L540 0L528.8 0C517.7 0 495.3 0 472.8 0C450.3 0 427.7 0 405.2 0C382.7 0 360.3 0 337.8 0C315.3 0 292.7 0 270.2 0C247.7 0 225.3 0 202.8 0C180.3 0 157.7 0 135.2 0C112.7 0 90.3 0 67.8 0C45.3 0 22.7 0 11.3 0L0 0Z" fill="#1e1e54"></path><path d="M0 36L11.3 33.3C22.7 30.7 45.3 25.3 67.8 25.3C90.3 25.3 112.7 30.7 135.2 33.3C157.7 36 180.3 36 202.8 35C225.3 34 247.7 32 270.2 31C292.7 30 315.3 30 337.8 30C360.3 30 382.7 30 405.2 29.3C427.7 28.7 450.3 27.3 472.8 26.3C495.3 25.3 517.7 24.7 528.8 24.3L540 24L540 0L528.8 0C517.7 0 495.3 0 472.8 0C450.3 0 427.7 0 405.2 0C382.7 0 360.3 0 337.8 0C315.3 0 292.7 0 270.2 0C247.7 0 225.3 0 202.8 0C180.3 0 157.7 0 135.2 0C112.7 0 90.3 0 67.8 0C45.3 0 22.7 0 11.3 0L0 0Z" fill="#19194b"></path></svg>